<svg width="86" height="32" viewBox="0 0 86 32" fill="none" xmlns="http://www.w3.org/2000/svg">
<path d="M70 0.5H16C7.43959 0.5 0.5 7.43959 0.5 16C0.5 24.5604 7.43959 31.5 16 31.5H70C78.5604 31.5 85.5 24.5604 85.5 16C85.5 7.43959 78.5604 0.5 70 0.5Z" stroke="#F28B03"/>
<path d="M48.1336 22.9326V12.1995H49.5335C49.7221 12.1995 49.8929 12.0856 49.9647 11.9111C50.0366 11.7365 49.9965 11.5368 49.8639 11.4024L47.064 8.60244C46.882 8.42044 46.5861 8.42044 46.4041 8.60244L43.6042 11.4024C43.4707 11.5368 43.4306 11.7365 43.5024 11.9111C43.5743 12.0856 43.7451 12.1995 43.9336 12.1995H45.3336V22.9326C45.3336 23.1902 45.5427 23.3993 45.8003 23.3993H47.6669C47.9254 23.3993 48.1336 23.1902 48.1336 22.9326Z" fill="black"/>
<path d="M39.5956 22.7968L42.3965 19.9969C42.53 19.8634 42.5701 19.6628 42.4973 19.4882C42.4245 19.3137 42.2547 19.1998 42.0661 19.1998H40.6661V8.46666C40.6661 8.20906 40.4571 8 40.1995 8H38.3329C38.0753 8 37.8662 8.20906 37.8662 8.46666V19.1998H36.4662C36.2777 19.1998 36.1069 19.3137 36.035 19.4882C35.9622 19.6628 36.0024 19.8634 36.1358 19.9969L38.9358 22.7968C39.1178 22.9788 39.4136 22.9788 39.5956 22.7968Z" fill="#F28B03"/>
</svg>
