<svg width="171" height="170" viewBox="0 0 171 170" fill="none" xmlns="http://www.w3.org/2000/svg">
<path opacity="0.15" fill-rule="evenodd" clip-rule="evenodd" d="M76.7599 44.218C76.7599 29.889 65.1439 18.273 50.8149 18.273C36.4869 18.273 24.8699 29.889 24.8699 44.218C24.8699 52.534 28.8529 59.853 34.9379 64.6L24.8699 121.197H76.7599L66.6919 64.6C72.7769 59.853 76.7599 52.534 76.7599 44.218Z" fill="#383838"/>
<path opacity="0.15" fill-rule="evenodd" clip-rule="evenodd" d="M138.65 89.4939C142.317 83.2739 140.249 75.2609 134.029 71.5939C127.81 67.9269 119.796 69.9949 116.129 76.2149C114.001 79.8249 113.856 84.0199 115.282 87.6379L96.4294 109.626L118.951 122.905L129.064 95.7639C132.921 95.2609 136.522 93.1029 138.65 89.4939Z" fill="#383838"/>
<path fill-rule="evenodd" clip-rule="evenodd" d="M105.797 114.124L97.0899 119.797L71.9169 81.1653C66.5419 72.9153 55.4569 70.5763 47.2059 75.9523C38.9549 81.3293 36.6159 92.4143 41.9919 100.663L67.1639 139.296L58.4569 144.97L33.2839 106.337C24.7799 93.2863 28.4799 75.7503 41.5319 67.2453C54.5849 58.7413 72.1209 62.4403 80.6249 75.4913L105.797 114.124Z" stroke="#1D2837" stroke-width="3"/>
<path fill-rule="evenodd" clip-rule="evenodd" d="M121.569 134.368L70.6054 167.575C68.1174 169.196 64.7564 168.487 63.1354 165.999L38.1624 127.672L98.1714 88.5714L123.145 126.899C124.765 129.386 124.056 132.747 121.569 134.368Z" fill="#383838"/>
<path fill-rule="evenodd" clip-rule="evenodd" d="M121.569 134.368L70.6054 167.575C68.1174 169.196 64.7564 168.487 63.1354 165.999L38.1624 127.672L98.1714 88.5714L123.145 126.899C124.765 129.386 124.056 132.747 121.569 134.368Z" stroke="#1D2837" stroke-width="3"/>
<path fill-rule="evenodd" clip-rule="evenodd" d="M29.5201 45.3269L10.4871 54.2109C9.5591 54.6439 8.4441 54.2389 8.0101 53.3099L1.3291 38.9959L23.7401 28.5359L30.4211 42.8499C30.8541 43.7789 30.4491 44.8929 29.5201 45.3269Z" stroke="#F28B03" stroke-opacity="0.219608" stroke-width="2"/>
<path d="M36.7027 22.4856L34.1017 16.9136C32.0287 12.4726 26.7287 10.5456 22.2857 12.6186C17.8437 14.6926 15.9167 19.9926 17.9897 24.4346L20.5907 30.0056" stroke="#383838" stroke-width="2"/>
<path fill-rule="evenodd" clip-rule="evenodd" d="M17.5314 39.3313C17.0954 38.3963 15.9844 37.9933 15.0494 38.4293C14.1144 38.8653 13.7104 39.9763 14.1474 40.9113C14.4004 41.4533 14.8824 41.8103 15.4244 41.9343L16.4904 45.9323L19.8754 44.3523L17.4954 40.9673C17.7474 40.4723 17.7844 39.8733 17.5314 39.3313Z" stroke="#383838"/>
<path fill-rule="evenodd" clip-rule="evenodd" d="M117.779 55.0085L111.761 52.0395L124.934 25.3405C127.748 19.6395 125.397 12.7125 119.695 9.89849C113.993 7.08549 107.066 9.43549 104.253 15.1365L91.0802 41.8355L85.0632 38.8665L98.2362 12.1675C102.686 3.14749 113.644 -0.569513 122.664 3.88149C131.685 8.33149 135.402 19.2905 130.952 28.3095L117.779 55.0085Z" stroke="#1D2837" stroke-width="3"/>
<path fill-rule="evenodd" clip-rule="evenodd" d="M111.726 70.4333L76.5052 53.0563C74.7862 52.2073 74.0742 50.1073 74.9222 48.3883L87.9912 21.8993L129.463 42.3613L116.393 68.8503C115.546 70.5693 113.445 71.2813 111.726 70.4333Z" fill="#383838"/>
<path fill-rule="evenodd" clip-rule="evenodd" d="M111.726 70.4333L76.5052 53.0563C74.7862 52.2073 74.0742 50.1073 74.9222 48.3883L87.9912 21.8993L129.463 42.3613L116.393 68.8503C115.546 70.5693 113.445 71.2813 111.726 70.4333Z" stroke="#1D2837" stroke-width="3"/>
<path fill-rule="evenodd" clip-rule="evenodd" d="M106.778 45.2566C107.77 43.2456 106.945 40.8116 104.934 39.8196C102.923 38.8266 100.488 39.6526 99.496 41.6636C98.921 42.8306 98.973 44.1336 99.498 45.2216L94.166 52.4666L101.448 56.0596L103.954 47.4196C105.137 47.1746 106.202 46.4236 106.778 45.2566Z" fill="#F28B03"/>
<path fill-rule="evenodd" clip-rule="evenodd" d="M162.625 92.4651L143.592 101.348C142.663 101.782 141.548 101.377 141.114 100.448L134.434 86.1341L156.845 75.6741L163.525 89.9881C163.959 90.9171 163.554 92.0311 162.625 92.4651Z" stroke="#383838" stroke-width="2"/>
<path d="M169.807 69.6237L167.206 64.0517C165.133 59.6107 159.833 57.6837 155.391 59.7567C150.949 61.8307 149.022 67.1307 151.095 71.5727L153.696 77.1437" stroke="#383838" stroke-width="2"/>
<path fill-rule="evenodd" clip-rule="evenodd" d="M150.636 86.4695C150.199 85.5345 149.088 85.1315 148.154 85.5675C147.219 86.0035 146.815 87.1155 147.251 88.0495C147.504 88.5925 147.988 88.9485 148.529 89.0725L149.595 93.0705L152.98 91.4905L150.6 88.1055C150.852 87.6105 150.889 87.0115 150.636 86.4695Z" stroke="#383838"/>
<path d="M76.5698 141.322C73.8816 140.206 72.5273 135.853 72.3023 133.406C68.9003 131.495 66.885 128.085 66.3027 126.62C65.4274 123.719 70.892 124.822 73.7337 125.737C75.7104 122.711 79.456 121.28 81.0817 120.942C81.4489 117.448 83.1038 111.541 85.3642 115.005C87.1724 117.776 88.2216 121.372 88.5202 122.823C93.8415 126.116 94.2989 129.342 93.7772 130.88C90.2904 141.157 78.2872 142.035 76.5698 141.322Z" fill="#F9930D"/>
<path d="M74.4535 136.187C72.98 137.804 75.292 140.201 76.7603 141.106C78.169 142.214 82.2941 140.806 84.0525 140.056C91.1522 137.212 92.7029 133.765 93.3752 131.738C94.4404 128.526 92.7542 126.401 91.4213 125.86C89.5987 125.12 88.4248 128.188 87.2196 129.57C86.2555 130.676 84.3136 131.268 83.4631 131.426C82.9168 131.603 82.4965 131.982 82.3547 132.149C79.5408 135.103 78.6841 135.289 77.3402 135.421C76.2651 135.526 74.5777 136.031 74.4535 136.187Z" fill="#FEEBC1"/>
<path fill-rule="evenodd" clip-rule="evenodd" d="M88.1971 128.37C87.8605 128.855 87.5354 129.32 87.2304 129.665C86.7379 130.223 85.9385 130.585 85.2859 130.94C84.5891 131.151 83.8732 131.311 83.4433 131.491C82.9134 131.657 82.5035 132.021 82.3672 132.179L82.366 132.181L82.3648 132.182C80.9539 133.642 80.0301 134.421 79.2882 134.848C78.5425 135.278 77.9827 135.351 77.3088 135.408C76.7777 135.453 76.0921 135.595 75.5229 135.746C75.2385 135.821 74.9844 135.898 74.7942 135.966C74.699 136 74.6209 136.031 74.5633 136.058C74.5345 136.071 74.5118 136.083 74.4952 136.093C74.4869 136.098 74.4807 136.103 74.4762 136.106C74.474 136.108 74.4724 136.109 74.4713 136.111C74.4702 136.111 74.4698 136.112 74.4698 136.112L74.4686 136.114L74.4672 136.115C74.028 136.456 73.9449 136.84 74.011 137.387C74.0403 137.841 74.229 138.314 74.5116 138.771C75.0771 139.685 76.0081 140.518 76.7319 140.978L76.7349 140.979L76.7377 140.982C77.0719 141.251 77.5755 141.377 78.1809 141.398C78.7847 141.418 79.4806 141.333 80.1904 141.19C81.61 140.903 83.0753 140.385 83.9515 140.022L83.9528 140.022C87.4929 138.649 89.6484 137.109 91.003 135.663C92.3571 134.218 92.914 132.865 93.2524 131.86C93.7869 130.272 93.6705 129.061 93.2454 128.124C92.8195 127.186 92.279 126.309 91.5043 125.911C91.2109 125.801 91.0108 125.846 90.8401 125.843C90.6687 125.84 90.4944 125.888 90.3169 125.979C89.9603 126.162 89.5998 126.514 89.2418 126.947C88.8945 127.367 88.5542 127.856 88.2253 128.33L88.1971 128.37Z" fill="#FEEBC1" stroke="#FEEBC1"/>
<path fill-rule="evenodd" clip-rule="evenodd" d="M83.7009 113.615C84.4307 113.43 85.0959 113.906 85.6792 114.799C87.4597 117.528 88.5113 121.022 88.8548 122.589C94.1261 125.901 94.7297 129.243 94.1334 131.001C92.3441 136.275 88.3675 139.131 84.646 140.573C82.7858 141.294 80.982 141.665 79.5303 141.811C78.8045 141.883 78.1622 141.9 77.6412 141.875C77.1324 141.851 76.703 141.784 76.4257 141.669C74.9496 141.057 73.8867 139.583 73.1706 138.02C72.4856 136.525 72.0859 134.88 71.9478 133.636C68.5516 131.654 66.5466 128.252 65.9533 126.758C65.9494 126.748 65.9459 126.738 65.9428 126.728C65.8194 126.319 65.7958 125.942 65.8931 125.607C65.9922 125.264 66.2061 125.004 66.4859 124.817C67.0206 124.459 67.8108 124.357 68.6309 124.371C70.196 124.398 72.1589 124.856 73.5795 125.294C74.6013 123.836 76.0073 122.76 77.3554 122.003C78.635 121.285 79.8814 120.844 80.7379 120.635C80.945 118.899 81.4439 116.658 82.177 115.196C82.3713 114.808 82.5891 114.46 82.8328 114.189C83.0751 113.919 83.3632 113.701 83.7009 113.615ZM82.8493 115.533C82.1364 116.955 81.6373 119.253 81.4557 120.982C81.4386 121.144 81.3183 121.277 81.1582 121.31C80.3834 121.471 79.0768 121.9 77.7235 122.659C76.3703 123.419 74.9936 124.496 74.0486 125.942C73.956 126.084 73.7799 126.147 73.6186 126.095C72.2106 125.642 70.1752 125.15 68.618 125.123C67.8262 125.11 67.2367 125.219 66.9042 125.442C66.7504 125.545 66.6587 125.667 66.6154 125.816C66.571 125.969 66.5674 126.187 66.6583 126.496C67.2279 127.918 69.1939 131.229 72.4865 133.078C72.5943 133.138 72.6655 133.248 72.6768 133.371C72.7857 134.556 73.1704 136.214 73.8543 137.707C74.5437 139.211 75.502 140.472 76.714 140.975C76.8662 141.038 77.1875 141.1 77.6775 141.124C78.1553 141.147 78.7598 141.132 79.4552 141.062C80.8461 140.923 82.5831 140.566 84.3742 139.872C87.9554 138.484 91.7238 135.762 93.4212 130.759C93.8632 129.456 93.5675 126.389 88.3224 123.143C88.2345 123.089 88.1728 123 88.152 122.899C87.8587 121.473 86.8224 117.928 85.0494 115.21C84.5024 114.372 84.1132 114.287 83.8855 114.344C83.7444 114.38 83.5781 114.484 83.3927 114.691C83.2089 114.896 83.026 115.18 82.8493 115.533Z" fill="url(#paint0_linear_7_744)"/>
<path fill-rule="evenodd" clip-rule="evenodd" d="M80.987 135.497C81.0597 135.302 81.2764 135.204 81.4709 135.276C81.9405 135.452 82.4751 135.615 82.928 135.515C83.1386 135.469 83.3359 135.364 83.5084 135.155C83.6857 134.941 83.8518 134.599 83.9574 134.056C83.9971 133.853 84.1945 133.72 84.3984 133.759C84.6022 133.799 84.7353 133.996 84.6956 134.2C84.5741 134.824 84.3687 135.295 84.0877 135.635C83.8019 135.98 83.454 136.169 83.09 136.249C82.3936 136.403 81.6617 136.15 81.2076 135.981C81.0131 135.908 80.9143 135.691 80.987 135.497Z" fill="black"/>
<path fill-rule="evenodd" clip-rule="evenodd" d="M87.0265 131.554C86.819 131.544 86.6425 131.704 86.6322 131.911C86.6069 132.419 86.5587 132.955 86.3066 133.311C86.1918 133.474 86.0309 133.603 85.7839 133.67C85.5279 133.74 85.157 133.75 84.6221 133.625C84.4199 133.578 84.2176 133.703 84.1703 133.906C84.1231 134.108 84.2487 134.31 84.4509 134.357C85.0624 134.5 85.5676 134.509 85.9823 134.396C86.406 134.28 86.7106 134.043 86.9208 133.745C87.3189 133.182 87.3599 132.419 87.3833 131.948C87.3936 131.741 87.2339 131.565 87.0265 131.554Z" fill="black"/>
<path fill-rule="evenodd" clip-rule="evenodd" d="M84.0956 132.857L84.8833 134.064L84.2535 134.475L83.4658 133.268L84.0956 132.857Z" fill="black"/>
<path d="M84.6456 131.75C84.9293 132.185 84.6188 132.89 83.9521 133.325C83.2854 133.76 82.515 133.76 82.2312 133.325C81.9475 132.891 82.258 132.185 82.9247 131.75C83.5914 131.315 84.3618 131.315 84.6456 131.75Z" fill="black"/>
<path d="M70.9474 129.929C69.2713 128.419 66.9996 125.75 71.3211 127.156L70.9474 129.929Z" fill="#FEEBC1"/>
<path fill-rule="evenodd" clip-rule="evenodd" d="M70.4925 128.612L70.6289 127.6C70.3372 127.518 70.0932 127.462 69.8914 127.428C69.7447 127.403 69.6295 127.391 69.5406 127.388C69.6518 127.605 69.8633 127.902 70.165 128.251C70.2687 128.371 70.3787 128.492 70.4925 128.612ZM69.4585 127.172C69.4585 127.172 69.4587 127.173 69.4587 127.176C69.4584 127.173 69.4584 127.172 69.4585 127.172ZM70.0998 126.192C70.4887 126.257 70.9576 126.379 71.5151 126.56C71.8029 126.654 71.9826 126.94 71.9422 127.24L71.5685 130.013C71.5375 130.243 71.3815 130.438 71.1633 130.518C70.9451 130.598 70.7005 130.551 70.5278 130.395C70.0952 130.005 69.6195 129.536 69.217 129.071C68.8305 128.624 68.4542 128.116 68.2934 127.655C68.2141 127.428 68.1468 127.098 68.2849 126.773C68.4401 126.406 68.7684 126.234 69.0773 126.17C69.3723 126.109 69.7202 126.128 70.0998 126.192Z" fill="#FEEBC1"/>
<path d="M86.0815 120.054C85.3739 117.912 83.8455 114.757 83.3927 119.279L86.0815 120.054Z" fill="#FEEBC1"/>
<path fill-rule="evenodd" clip-rule="evenodd" d="M85.0592 119.107L84.0776 118.825C84.1196 118.524 84.1667 118.278 84.2168 118.08C84.2533 117.936 84.2891 117.826 84.3215 117.743C84.4755 117.932 84.6625 118.245 84.8603 118.662C84.9283 118.805 84.9948 118.955 85.0592 119.107ZM84.1574 117.581C84.1574 117.581 84.1584 117.582 84.1605 117.583C84.1584 117.581 84.1574 117.581 84.1574 117.581ZM83.0016 117.773C82.905 118.155 82.8275 118.634 82.7691 119.217C82.739 119.518 82.9283 119.798 83.2192 119.882L85.9079 120.656C86.1312 120.721 86.3719 120.656 86.533 120.489C86.6942 120.321 86.7494 120.078 86.6765 119.858C86.4939 119.305 86.2565 118.68 85.9926 118.125C85.7393 117.591 85.4259 117.042 85.0687 116.709C84.8925 116.545 84.6182 116.351 84.2644 116.346C83.8666 116.34 83.5763 116.571 83.3935 116.828C83.219 117.074 83.0959 117.4 83.0016 117.773Z" fill="#FEEBC1"/>
<path fill-rule="evenodd" clip-rule="evenodd" d="M78.7563 133.964C79.7998 133.283 80.0938 131.885 79.4129 130.841C78.7319 129.798 77.334 129.504 76.2905 130.185C75.247 130.865 74.953 132.263 75.6339 133.307C76.3148 134.35 77.7128 134.644 78.7563 133.964ZM79.0988 134.488C80.4321 133.618 80.8078 131.832 79.9377 130.499C79.0677 129.165 77.2814 128.79 75.948 129.66C74.6146 130.53 74.239 132.316 75.1091 133.649C75.9791 134.983 77.7654 135.358 79.0988 134.488Z" fill="black"/>
<path fill-rule="evenodd" clip-rule="evenodd" d="M86.4191 128.963C87.4627 128.283 87.7566 126.885 87.0757 125.841C86.3948 124.798 84.9968 124.504 83.9533 125.185C82.9098 125.865 82.6158 127.263 83.2968 128.307C83.9777 129.35 85.3756 129.644 86.4191 128.963ZM86.7616 129.488C88.095 128.618 88.4706 126.832 87.6005 125.499C86.7305 124.165 84.9442 123.79 83.6109 124.66C82.2775 125.53 81.9019 127.316 82.7719 128.649C83.642 129.983 85.4282 130.358 86.7616 129.488Z" fill="black"/>
<path d="M77.3948 128.327C77.7193 128.809 77.2262 129.709 76.2934 130.337C75.3605 130.964 74.3412 131.082 74.0166 130.599C73.6921 130.117 74.1852 129.217 75.118 128.589C76.0509 127.962 77.0702 127.844 77.3948 128.327Z" fill="#FEEBC1"/>
<path d="M82.0704 125.395C81.7548 124.906 82.2644 124.016 83.2086 123.406C84.1528 122.795 85.1741 122.697 85.4898 123.185C85.8054 123.673 85.2958 124.564 84.3516 125.174C83.4074 125.784 82.3861 125.883 82.0704 125.395Z" fill="#FEEBC1"/>
<path fill-rule="evenodd" clip-rule="evenodd" d="M82.9715 128.964C81.3381 128.825 80.404 130.125 80.1419 130.817C80.0806 130.979 79.8998 131.061 79.7379 130.999C79.5761 130.938 79.4945 130.757 79.5558 130.595C79.8615 129.788 80.982 128.166 83.0245 128.339C83.1969 128.354 83.3248 128.506 83.3102 128.678C83.2956 128.851 83.1439 128.978 82.9715 128.964Z" fill="black"/>
<path fill-rule="evenodd" clip-rule="evenodd" d="M77.452 132.447C77.1528 132.723 77.0587 133.016 77.0616 133.144C77.0694 133.49 76.7953 133.777 76.4492 133.785C76.1032 133.793 75.8163 133.519 75.8085 133.173C75.7953 132.588 76.1186 131.972 76.6015 131.526C77.105 131.061 77.8335 130.727 78.7261 130.747C79.0721 130.754 79.3465 131.041 79.3389 131.387C79.3313 131.733 79.0447 132.007 78.6986 132C78.1488 131.988 77.7306 132.19 77.452 132.447Z" fill="#010101"/>
<path fill-rule="evenodd" clip-rule="evenodd" d="M84.676 128.129C85.0682 127.059 86.0499 126.962 86.3646 127.124C86.6723 127.283 87.0502 127.161 87.2086 126.854C87.367 126.546 87.2459 126.168 86.9382 126.01C85.9008 125.476 84.1301 125.977 83.4992 127.697C83.38 128.022 83.5469 128.382 83.8718 128.502C84.1968 128.621 84.5568 128.454 84.676 128.129Z" fill="#010101"/>
<defs>
<linearGradient id="paint0_linear_7_744" x1="82.0377" y1="126.492" x2="99.7217" y2="157.607" gradientUnits="userSpaceOnUse">
<stop/>
<stop offset="1" stop-color="white"/>
</linearGradient>
</defs>
</svg>
