<svg width="168" height="170" viewBox="0 0 168 170" fill="none" xmlns="http://www.w3.org/2000/svg">
<path fill-rule="evenodd" clip-rule="evenodd" d="M73.5294 113.061C73.5294 123.921 64.7246 132.726 53.8644 132.726C43.0033 132.726 34.1985 123.921 34.1985 113.061C34.1985 102.199 43.0033 93.3955 53.8644 93.3955C64.7246 93.3955 73.5294 102.199 73.5294 113.061Z" fill="#383838"/>
<g opacity="0.15">
<path opacity="0.15" d="M5.933 109.025C3.74876 101.674 2.57593 93.8881 2.57593 85.8277C2.57593 46.9836 29.8128 14.5016 66.2306 6.4386" stroke="black" stroke-width="4"/>
<path opacity="0.15" d="M131.124 152.02C117.81 161.538 101.503 167.14 83.8875 167.14C56.1938 167.14 31.7327 153.294 17.05 132.148" stroke="black" stroke-width="4"/>
<path opacity="0.15" d="M163.457 102.654C160.491 116.748 153.877 129.497 144.646 139.867" stroke="black" stroke-width="4"/>
<path opacity="0.15" d="M117.761 11.8854C145.757 24.7307 165.2 53.0091 165.2 85.8276" stroke="black" stroke-width="4"/>
<path opacity="0.15" d="M83.8879 4.51575C89.8431 4.51575 95.648 5.15625 101.238 6.37115" stroke="black" stroke-width="4"/>
<path opacity="0.15" d="M41.7835 140.956C25.2128 128.281 14.5234 108.302 14.5234 85.8277C14.5234 75.7823 16.6587 66.2357 20.5009 57.6172" stroke="black" stroke-width="4"/>
<path opacity="0.15" d="M135.883 131.74C123.174 146.123 104.591 155.192 83.8875 155.192C74.668 155.192 65.8683 153.393 57.8208 150.127" stroke="black" stroke-width="4"/>
<path opacity="0.15" d="M148.19 59.7679C151.454 67.8138 153.253 76.6108 153.253 85.8277C153.253 99.402 149.353 112.066 142.613 122.76" stroke="black" stroke-width="4"/>
<path opacity="0.15" d="M133.55 37.4019C136.509 40.4352 139.191 43.7391 141.558 47.2722" stroke="black" stroke-width="4"/>
<path opacity="0.15" d="M28.3706 44.2375C41.0236 27.3732 61.1815 16.464 83.8876 16.464C98.2535 16.464 111.599 20.8308 122.67 28.3099" stroke="black" stroke-width="4"/>
<path opacity="0.15" d="M51.5693 37.8962C60.7948 31.6637 71.917 28.0242 83.8882 28.0242" stroke="black" stroke-width="4"/>
<path opacity="0.15" d="M27.6731 99.3429C26.6351 95.0071 26.0847 90.4823 26.0847 85.8279C26.0847 71.4483 31.335 58.2957 40.023 48.1815" stroke="black" stroke-width="4"/>
<path opacity="0.15" d="M102.926 140.423C96.9648 142.502 90.558 143.631 83.8877 143.631C62.0607 143.631 43.0593 131.533 33.2234 113.677" stroke="black" stroke-width="4"/>
<path opacity="0.15" d="M134.16 114.377C129.851 121.948 123.881 128.451 116.747 133.39" stroke="black" stroke-width="4"/>
<path opacity="0.15" d="M103.097 31.2925C125.579 39.2112 141.692 60.6381 141.692 85.8281C141.692 90.6654 141.097 95.3644 139.978 99.8549" stroke="black" stroke-width="4"/>
</g>
<path d="M92.0808 27.0633V19.136" stroke="#F28B03" stroke-width="4"/>
<path d="M103.371 28.3876L105.205 20.6749" stroke="#F28B03" stroke-width="4"/>
<path d="M114.701 32.6236L118.376 25.5995" stroke="#F28B03" stroke-width="4"/>
<path d="M124.186 39.1145L129.403 33.1448" stroke="#F28B03" stroke-width="4"/>
<path d="M131.597 47.2358L138.018 42.5857" stroke="#F28B03" stroke-width="4"/>
<path d="M43.415 3.96869V0.858032" stroke="#F28B03" stroke-width="4"/>
<mask id="mask0_7_908" style="mask-type:alpha" maskUnits="userSpaceOnUse" x="42" y="0" width="2" height="4">
<path d="M42.9858 0.858521H43.8444V3.96866H42.9858V0.858521Z" fill="white"/>
</mask>
<g mask="url(#mask0_7_908)">
</g>
<path d="M34.5401 6.15035L33.0977 3.39429" stroke="#F28B03" stroke-width="4"/>
<path d="M27.9102 11.8837L25.3911 10.0592" stroke="#F28B03" stroke-width="4"/>
<path fill-rule="evenodd" clip-rule="evenodd" d="M125.996 76.1841V105.907H108.373C104.683 105.881 101.699 102.893 101.677 99.2028V82.8433C101.702 79.1617 104.692 76.1884 108.373 76.1841H125.996ZM119.444 123.157H73.8298C75.4122 120.248 76.3069 116.685 76.3069 113.019C76.3129 100.789 66.4039 90.8677 54.1725 90.8599C50.745 90.8548 47.3648 91.6644 44.3108 93.2202V65.4595C44.3108 61.7916 47.206 58.7248 50.873 58.7248H119.442C123.11 58.7248 125.996 61.7908 125.996 65.4595V72.8579H108.373C102.855 72.8648 98.3785 77.3252 98.3519 82.8433V99.2028C98.3751 104.729 102.847 109.204 108.373 109.232H125.996V116.589C126.012 118.334 125.328 120.011 124.096 121.247C122.865 122.481 121.187 123.17 119.444 123.157ZM54.1287 131.914C43.7167 131.914 35.2742 123.473 35.2742 113.06C35.2742 102.648 43.7167 94.2067 54.1287 94.2067C64.5417 94.2067 72.9824 102.648 72.9824 113.06C72.9713 123.468 64.5356 131.903 54.1287 131.914ZM88.6224 41.4337L92.0276 46.2796L72.803 55.3995H68.6045L88.6224 41.4337ZM112.257 55.3995H80.5483L106.411 43.1037L112.257 55.3995ZM119.444 55.3995H115.938L108.7 40.2145C108.51 39.8187 108.168 39.5156 107.752 39.3714C107.337 39.228 106.881 39.2555 106.485 39.4469L95.073 44.8826L90.3945 38.2011C90.1413 37.8405 89.7557 37.595 89.3213 37.5194C88.892 37.4284 88.4447 37.5125 88.0781 37.7547L62.8022 55.3995H50.873C45.3712 55.3995 40.9855 59.956 40.9855 65.4595V95.2705C35.3738 99.3187 31.9944 105.786 31.9944 113.06C32.0004 125.291 41.9196 135.202 54.1502 135.199C61.0549 135.242 67.5699 132.009 71.71 126.483H119.444C122.069 126.495 124.591 125.455 126.446 123.597C128.302 121.738 129.337 119.215 129.321 116.589V65.4595C129.321 59.956 124.944 55.3995 119.444 55.3995Z" fill="black"/>
<path fill-rule="evenodd" clip-rule="evenodd" d="M111.45 88.842C112.655 88.842 113.632 89.8182 113.632 91.0246C113.632 92.2283 112.655 93.2062 111.45 93.2062C110.244 93.2062 109.267 92.2283 109.267 91.0246C109.268 89.8191 110.245 88.8438 111.45 88.842ZM105.941 91.0246C105.941 94.0665 108.408 96.5324 111.45 96.5324C114.492 96.5324 116.957 94.0665 116.957 91.0246C116.957 87.9826 114.492 85.5159 111.45 85.5159C108.409 85.5193 105.944 87.9834 105.941 91.0246Z" fill="#F28B03"/>
<path d="M43.1881 120.735C41.5166 118.288 42.784 113.822 43.9538 111.61C42.1161 108.088 42.2947 104.059 42.6138 102.485C43.4816 99.524 47.5273 103.506 49.4417 105.867C52.811 104.387 56.8014 105.25 58.3754 105.867C60.6331 103.091 65.331 98.9753 65.331 103.187C65.331 106.556 64.2249 110.206 63.6718 111.61C66.3775 117.379 64.9724 120.384 63.6718 121.405C54.98 128.229 44.256 122.299 43.1881 120.735Z" fill="#F9930D"/>
<path d="M44.2408 115.179C42.0846 115.738 42.7221 119.069 43.4708 120.657C44.0558 122.385 48.3565 123.481 50.2733 123.819C57.9102 125.344 61.1505 123.268 62.8517 121.913C65.547 119.767 65.2916 117.017 64.456 115.814C63.3134 114.169 60.6055 116.132 58.8086 116.64C57.3711 117.046 55.3859 116.47 54.5731 116.132C54.0083 115.979 53.4393 116.068 53.2254 116.132C49.1823 117.085 48.3481 116.767 47.1287 116.132C46.1533 115.623 44.4334 115.115 44.2408 115.179Z" fill="#FEEBC1"/>
<path fill-rule="evenodd" clip-rule="evenodd" d="M60.3097 116.16C59.7532 116.386 59.217 116.602 58.7648 116.727C58.0347 116.928 57.1513 116.792 56.3974 116.732C55.686 116.524 54.9865 116.262 54.5198 116.176C53.9752 116.023 53.4234 116.105 53.219 116.164L53.2172 116.165L53.2154 116.165C51.1999 116.625 49.9787 116.776 49.1083 116.727C48.2334 116.678 47.7154 116.429 47.109 116.103C46.6311 115.846 45.9674 115.586 45.3981 115.397C45.1137 115.303 44.8541 115.228 44.6543 115.179C44.5543 115.155 44.4704 115.138 44.4064 115.129C44.3743 115.125 44.3483 115.122 44.3284 115.122C44.3184 115.122 44.3107 115.122 44.3049 115.122C44.302 115.123 44.2999 115.123 44.2984 115.123C44.297 115.124 44.2964 115.124 44.2964 115.124L44.2944 115.124L44.2923 115.125C43.7284 115.171 43.4435 115.453 43.1954 115.956C42.968 116.359 42.8658 116.867 42.8526 117.414C42.8261 118.508 43.1563 119.737 43.518 120.531L43.5195 120.535L43.5206 120.538C43.6557 120.954 44.015 121.342 44.5198 121.696C45.0234 122.049 45.6641 122.364 46.3492 122.637C47.7192 123.182 49.2572 123.556 50.206 123.734L50.2074 123.734C53.9897 124.534 56.6849 124.42 58.6444 123.941C60.6031 123.462 61.8312 122.618 62.6791 121.949C64.0183 120.892 64.593 119.794 64.7516 118.759C64.9105 117.722 64.9378 116.673 64.4983 115.904C64.3092 115.646 64.1137 115.573 63.9698 115.476C63.8253 115.378 63.6499 115.322 63.4479 115.301C63.042 115.258 62.5388 115.358 61.9926 115.528C61.4629 115.692 60.9002 115.921 60.3564 116.141L60.3097 116.16Z" fill="#FEEBC1" stroke="#FEEBC1"/>
<path fill-rule="evenodd" clip-rule="evenodd" d="M64.6858 101.076C65.4109 101.325 65.7138 102.1 65.7138 103.187C65.7138 106.505 64.6663 110.069 64.0876 111.596C66.7398 117.354 65.3948 120.54 63.9083 121.707C59.4479 125.208 54.4677 125.431 50.4918 124.59C48.5044 124.17 46.7597 123.483 45.4408 122.799C44.7813 122.457 44.2242 122.114 43.7939 121.803C43.3737 121.499 43.0443 121.204 42.872 120.951C41.9541 119.607 41.8679 117.759 42.1268 116.028C42.3745 114.372 42.9493 112.746 43.5234 111.609C41.73 108.03 41.9135 104.012 42.2386 102.409C42.2407 102.398 42.2433 102.388 42.2464 102.377C42.3687 101.96 42.5585 101.625 42.8281 101.393C43.103 101.157 43.4303 101.053 43.7731 101.049C44.4282 101.042 45.1585 101.395 45.85 101.863C47.1697 102.757 48.5887 104.24 49.5565 105.404C51.2392 104.729 53.0368 104.594 54.6073 104.699C56.0981 104.798 57.4064 105.115 58.2534 105.413C59.3955 104.049 61.0681 102.415 62.507 101.576C62.8884 101.354 63.2674 101.179 63.6265 101.082C63.9833 100.987 64.3502 100.961 64.6858 101.076ZM62.8927 102.237C61.4936 103.053 59.7888 104.736 58.6725 106.109C58.5674 106.238 58.3908 106.284 58.2357 106.224C57.4855 105.93 56.133 105.568 54.5563 105.463C52.9798 105.357 51.2064 105.51 49.5957 106.218C49.4378 106.287 49.253 106.242 49.1443 106.108C48.1958 104.938 46.7337 103.387 45.4206 102.497C44.753 102.045 44.1895 101.81 43.782 101.815C43.5936 101.817 43.4475 101.87 43.3276 101.974C43.2043 102.08 43.0799 102.264 42.9858 102.577C42.6802 104.107 42.5146 108.024 44.2933 111.433C44.3516 111.545 44.3512 111.678 44.2923 111.789C43.7262 112.86 43.1315 114.488 42.8841 116.141C42.6348 117.808 42.7507 119.416 43.5043 120.519C43.5989 120.658 43.8382 120.89 44.2429 121.183C44.6374 121.468 45.1612 121.792 45.7931 122.119C47.0568 122.774 48.7366 123.436 50.6502 123.841C54.4762 124.65 59.204 124.426 63.4354 121.104C64.5372 120.239 65.9921 117.459 63.3252 111.773C63.2805 111.677 63.277 111.568 63.3156 111.47C63.8589 110.091 64.9481 106.491 64.9481 103.187C64.9481 102.168 64.6638 101.878 64.4375 101.801C64.2974 101.753 64.0976 101.749 63.8245 101.822C63.5537 101.895 63.2396 102.035 62.8927 102.237Z" fill="url(#paint0_linear_7_908)"/>
<path fill-rule="evenodd" clip-rule="evenodd" d="M50.1961 118.226C50.3663 118.1 50.606 118.137 50.7314 118.307C51.0342 118.718 51.3993 119.154 51.8411 119.321C52.0465 119.399 52.2731 119.419 52.5362 119.337C52.8067 119.253 53.1387 119.054 53.5305 118.65C53.6778 118.498 53.9202 118.495 54.0719 118.642C54.2236 118.789 54.2272 119.032 54.08 119.183C53.6294 119.648 53.192 119.935 52.7635 120.068C52.3275 120.204 51.9256 120.172 51.5706 120.038C50.8913 119.781 50.4077 119.158 50.1149 118.761C49.9895 118.591 50.0258 118.351 50.1961 118.226Z" fill="black"/>
<path fill-rule="evenodd" clip-rule="evenodd" d="M57.5398 118.224C57.3686 118.1 57.1292 118.138 57.005 118.309C56.7008 118.728 56.3617 119.158 55.9482 119.322C55.7598 119.397 55.5511 119.417 55.3028 119.337C55.0456 119.254 54.7237 119.056 54.3372 118.652C54.191 118.499 53.9487 118.494 53.7958 118.64C53.643 118.786 53.6376 119.029 53.7837 119.181C54.2256 119.644 54.6516 119.932 55.0684 120.066C55.4942 120.203 55.8856 120.171 56.2305 120.034C56.8835 119.775 57.3431 119.147 57.6247 118.759C57.7489 118.588 57.7109 118.348 57.5398 118.224Z" fill="black"/>
<path fill-rule="evenodd" clip-rule="evenodd" d="M54.3156 117.704V119.172H53.5498V117.704H54.3156Z" fill="black"/>
<path d="M55.4005 117.066C55.4005 117.595 54.7433 118.023 53.9328 118.023C53.1222 118.023 52.4651 117.595 52.4651 117.066C52.4651 116.538 53.1222 116.109 53.9328 116.109C54.7433 116.109 55.4005 116.538 55.4005 117.066Z" fill="black"/>
<path d="M44.7327 107.892C44.1439 105.671 43.692 102.131 46.5944 105.735L44.7327 107.892Z" fill="#FEEBC1"/>
<path fill-rule="evenodd" clip-rule="evenodd" d="M45.0777 106.516L45.7574 105.728C45.5545 105.495 45.3775 105.312 45.2244 105.171C45.1131 105.068 45.0212 104.994 44.9475 104.941C44.9215 105.189 44.9363 105.56 44.9995 106.025C45.0212 106.185 45.0476 106.35 45.0777 106.516ZM44.9973 104.712C44.9973 104.712 44.9968 104.713 44.9956 104.715C44.9967 104.713 44.9973 104.712 44.9973 104.712ZM46.0898 104.233C46.385 104.505 46.7171 104.87 47.0915 105.335C47.2848 105.575 47.2789 105.919 47.0776 106.152L45.2159 108.309C45.0612 108.488 44.8201 108.567 44.5895 108.514C44.3589 108.46 44.1766 108.284 44.116 108.055C43.964 107.482 43.8191 106.818 43.7349 106.197C43.6539 105.601 43.6157 104.958 43.7351 104.476C43.794 104.238 43.9198 103.919 44.2188 103.718C44.5551 103.492 44.9311 103.528 45.23 103.645C45.5154 103.758 45.8017 103.967 46.0898 104.233Z" fill="#FEEBC1"/>
<path d="M63.1328 107.892C63.7215 105.671 64.1734 102.131 61.2711 105.735L63.1328 107.892Z" fill="#FEEBC1"/>
<path fill-rule="evenodd" clip-rule="evenodd" d="M62.788 106.516L62.1084 105.728C62.3112 105.495 62.4882 105.312 62.6413 105.171C62.7526 105.068 62.8445 104.994 62.9182 104.941C62.9442 105.189 62.9294 105.56 62.8662 106.025C62.8445 106.185 62.8181 106.35 62.788 106.516ZM62.8684 104.712C62.8684 104.712 62.8689 104.713 62.8701 104.715C62.869 104.713 62.8684 104.712 62.8684 104.712ZM61.776 104.233C61.4807 104.505 61.1486 104.87 60.7742 105.335C60.5809 105.575 60.5868 105.919 60.7882 106.152L62.6499 108.309C62.8045 108.488 63.0456 108.567 63.2762 108.514C63.5068 108.46 63.6891 108.284 63.7497 108.055C63.9017 107.482 64.0466 106.818 64.1309 106.197C64.2118 105.601 64.2501 104.958 64.1307 104.476C64.0717 104.238 63.9459 103.919 63.6469 103.718C63.3107 103.492 62.9346 103.528 62.6358 103.645C62.3503 103.758 62.064 103.967 61.776 104.233Z" fill="#FEEBC1"/>
<path fill-rule="evenodd" clip-rule="evenodd" d="M49.147 115.677C50.4158 115.677 51.4443 114.648 51.4443 113.38C51.4443 112.111 50.4158 111.082 49.147 111.082C47.8783 111.082 46.8498 112.111 46.8498 113.38C46.8498 114.648 47.8783 115.677 49.147 115.677ZM49.147 116.315C50.7682 116.315 52.0824 115.001 52.0824 113.38C52.0824 111.758 50.7682 110.444 49.147 110.444C47.5259 110.444 46.2117 111.758 46.2117 113.38C46.2117 115.001 47.5259 116.315 49.147 116.315Z" fill="black"/>
<path fill-rule="evenodd" clip-rule="evenodd" d="M58.4637 115.677C59.7324 115.677 60.7609 114.648 60.7609 113.38C60.7609 112.111 59.7324 111.082 58.4637 111.082C57.195 111.082 56.1664 112.111 56.1664 113.38C56.1664 114.648 57.195 115.677 58.4637 115.677ZM58.4637 116.315C60.0848 116.315 61.399 115.001 61.399 113.38C61.399 111.758 60.0848 110.444 58.4637 110.444C56.8425 110.444 55.5283 111.758 55.5283 113.38C55.5283 115.001 56.8425 116.315 58.4637 116.315Z" fill="black"/>
<path d="M51.1225 110.113C51.1307 110.705 50.2096 111.198 49.0649 111.214C47.9203 111.23 46.9857 110.763 46.9774 110.171C46.9691 109.579 47.8903 109.086 49.0349 109.07C50.1795 109.054 51.1142 109.521 51.1225 110.113Z" fill="#FEEBC1"/>
<path d="M56.7409 110.214C56.7435 109.622 57.6736 109.146 58.8183 109.151C59.963 109.156 60.8889 109.64 60.8863 110.232C60.8837 110.824 59.9536 111.3 58.8089 111.295C57.6642 111.29 56.7383 110.806 56.7409 110.214Z" fill="#FEEBC1"/>
<path fill-rule="evenodd" clip-rule="evenodd" d="M55.5233 113.759C54.2076 112.732 52.6877 113.32 52.079 113.765C51.9367 113.869 51.7371 113.838 51.6332 113.695C51.5293 113.553 51.5604 113.353 51.7027 113.25C52.4128 112.731 54.2707 111.971 55.9159 113.256C56.0548 113.364 56.0795 113.565 55.9711 113.704C55.8627 113.842 55.6622 113.867 55.5233 113.759Z" fill="black"/>
<path fill-rule="evenodd" clip-rule="evenodd" d="M48.8783 113.658C48.4695 113.727 48.2264 113.924 48.1574 114.035C47.9716 114.335 47.5782 114.427 47.2787 114.241C46.9793 114.055 46.8872 113.662 47.0731 113.362C47.387 112.856 48.0054 112.511 48.6654 112.399C49.3535 112.283 50.1607 112.403 50.911 112.917C51.2018 113.116 51.2763 113.513 51.0773 113.804C50.8783 114.095 50.4811 114.169 50.1903 113.97C49.7281 113.654 49.2591 113.593 48.8783 113.658Z" fill="#010101"/>
<path fill-rule="evenodd" clip-rule="evenodd" d="M57.4414 113.995C58.3709 113.302 59.2622 113.765 59.4404 114.078C59.6147 114.384 60.0043 114.491 60.3107 114.317C60.617 114.143 60.724 113.753 60.5497 113.447C59.9622 112.414 58.1733 111.857 56.678 112.973C56.3956 113.183 56.3375 113.583 56.5483 113.866C56.7591 114.148 57.1589 114.206 57.4414 113.995Z" fill="#010101"/>
<defs>
<linearGradient id="paint0_linear_7_908" x1="56.1025" y1="111.132" x2="53.869" y2="147.505" gradientUnits="userSpaceOnUse">
<stop/>
<stop offset="1" stop-color="white"/>
</linearGradient>
</defs>
</svg>
