<svg width="39" height="35" viewBox="0 0 39 35" fill="none" xmlns="http://www.w3.org/2000/svg">
<path fill-rule="evenodd" clip-rule="evenodd" d="M33.1608 17.6925C33.1608 18.3951 32.5921 18.9638 31.8895 18.9638C31.1871 18.9638 30.6185 18.3951 30.6185 17.6925C30.6185 16.9905 31.1875 16.4214 31.8895 16.4214C32.5921 16.4214 33.1608 16.991 33.1608 17.6925ZM37.0473 20.1644H31.3975C30.0765 20.1644 29.0021 19.0902 29.0021 17.7692V17.5216C29.0021 16.2011 30.0765 15.1267 31.3975 15.1267H37.0473V20.1644ZM35.6078 27.1212C35.6078 28.0735 34.8331 28.8482 33.8808 28.8482H11.3787C10.4264 28.8482 9.65139 28.0735 9.65139 27.1212V7.354C9.65139 6.40172 10.4264 5.62659 11.3787 5.62659H17.8605L15.0991 7.16241H11.7387C11.4202 7.16241 11.1626 7.42019 11.1626 7.7381C11.1626 8.05612 11.4202 8.31379 11.7387 8.31379H35.6078V13.9759H31.3975C29.4422 13.9759 27.8508 15.5672 27.8508 17.5224V17.77C27.8508 19.7253 29.4422 21.3167 31.3975 21.3167H35.6078V27.1212ZM28.1474 1.22406C28.4174 1.07266 28.7808 1.17849 28.9296 1.44758L32.1079 7.16162H17.469L28.1474 1.22406ZM33.8808 5.62659C34.7675 5.62659 35.4913 6.30038 35.5889 7.16241H33.4254L32.572 5.62659H33.8808ZM38.1985 13.9754H36.7595V7.354C36.7595 5.76656 35.4681 4.47531 33.8808 4.47531H31.9312L29.936 0.888456C29.632 0.34031 29.0533 0 28.4261 0C28.1334 0 27.8435 0.0752511 27.5871 0.217467L19.9308 4.47531H11.3787C9.79125 4.47531 8.5 5.76656 8.5 7.354V27.1212C8.5 28.7082 9.79125 30 11.3787 30H33.8808C35.4681 30 36.7595 28.7082 36.7595 27.1212V21.3158H38.1985V13.9754Z" fill="white"/>
<path d="M8.5 35C12.9183 35 16.5 31.4183 16.5 27C16.5 22.5817 12.9183 19 8.5 19C4.08172 19 0.5 22.5817 0.5 27C0.5 31.4183 4.08172 35 8.5 35Z" fill="#F28B03"/>
<path d="M4.5 27.25H12.5" stroke="white" stroke-linecap="square"/>
<path d="M8.75 23L8.75 31" stroke="white" stroke-linecap="square"/>
</svg>
