<svg width="126" height="136" viewBox="0 0 126 136" fill="none" xmlns="http://www.w3.org/2000/svg">
<g clip-path="url(#clip0_6_436)">
<path fill-rule="evenodd" clip-rule="evenodd" d="M49.2103 35.1552H61.1496C67.0948 35.1552 71.9316 39.9287 71.9316 45.7963V49.4243H59.9922C54.0471 49.4243 49.2103 44.6507 49.2103 38.7834V35.1552ZM83.5086 53.5795H93.7897V57.1075C93.7897 61.1162 90.4848 64.3777 86.423 64.3777H76.1421V60.8499C76.1421 56.8409 79.4467 53.5795 83.5086 53.5795ZM59.9922 53.5795H71.9316V60.8499V66.4553V74.6405C71.3762 74.6053 70.8177 74.586 70.2565 74.586C64.7237 74.586 59.4346 76.2693 54.9609 79.4537C54.0182 80.1247 53.8048 81.4232 54.4852 82.354C55.1653 83.2848 56.481 83.4955 57.4239 82.8238C61.1759 80.1532 65.6134 78.7415 70.2565 78.7415C71.3787 78.7415 72.4882 78.8291 73.578 78.9939C73.6683 79.0136 73.7607 79.0278 73.855 79.0359C80.406 80.1108 86.199 84.0803 89.4824 89.929C89.8668 90.6136 90.585 91 91.3258 91C91.6707 91 92.0208 90.9161 92.3439 90.7393C93.3611 90.1831 93.7287 88.9184 93.1651 87.9147C89.5222 81.4262 83.2859 76.8801 76.1418 75.2509V68.5329H86.423C92.8066 68.5329 98 63.4074 98 57.1075V51.5019C98 50.3546 97.0575 49.4243 95.8949 49.4243H83.5086C80.7125 49.4243 78.1447 50.4078 76.1421 52.0425V51.5019V45.7963C76.1421 37.6373 69.4163 31 61.1496 31H47.1051C45.9425 31 45 31.9304 45 33.0776V38.7834C45 46.9421 51.7253 53.5795 59.9922 53.5795Z" fill="#F28B03"/>
<path fill-rule="evenodd" clip-rule="evenodd" d="M28.5147 117.824C28.4071 118.103 28.1979 118.323 27.9254 118.443C27.8921 118.458 27.8595 118.474 27.8272 118.49L4.17969 130.489V121.3L10.361 118.251C11.3972 117.74 11.8248 116.482 11.3159 115.442C10.807 114.401 9.55416 113.972 8.51864 114.483L4.17969 116.623V98.2918L16.6536 92.8017C16.9261 92.681 17.2291 92.6738 17.5067 92.7817C17.7844 92.8898 18.0036 93.1002 18.124 93.3739L27.9542 115.735C27.9551 115.738 27.9559 115.739 27.9567 115.741L28.4953 116.966C28.6154 117.24 28.6223 117.545 28.5147 117.824ZM106.303 98.444C104.478 94.2945 99.6337 92.4102 95.5027 94.2412C95.4922 94.2458 95.4818 94.2507 95.4715 94.2553L81.8171 100.58C80.7688 101.066 80.3112 102.313 80.7943 103.365C81.2777 104.418 82.5193 104.878 83.5674 104.393L97.2051 98.0758C99.2245 97.1894 101.588 98.1127 102.479 100.14C103.372 102.171 102.453 104.554 100.43 105.451L72.4876 117.843C68.0601 119.807 63.0346 119.693 58.6994 117.529L48.4709 112.425C43.0206 109.705 36.7015 109.562 31.1348 112.03L30.9337 112.12L23.2895 94.7299L33.9023 90.0234C38.9583 87.7811 44.5998 87.6004 49.7877 89.5137L70.3566 97.1006C72.2331 97.7928 73.2333 99.9013 72.5863 101.801C71.9269 103.737 69.8203 104.779 67.891 104.123L51.9852 98.7196C50.8915 98.3482 49.7056 98.9372 49.3357 100.036C48.9657 101.134 49.5526 102.325 50.6458 102.697L66.5518 108.1C67.3844 108.383 68.2329 108.518 69.0678 108.518C72.3484 108.518 75.4228 106.443 76.5411 103.161C77.9177 99.119 75.7896 94.6329 71.7975 93.1602L51.2288 85.5731C45.0191 83.2828 38.2664 83.4995 32.2144 86.1829L21.533 90.9199C20.9321 89.9925 20.0646 89.2752 19.0174 88.8674C17.6987 88.3542 16.2598 88.3878 14.9715 88.9589L1.25098 94.9973C0.491114 95.3321 0 96.0865 0 96.92V133.901C0 134.63 0.37659 135.307 0.994767 135.689C1.32956 135.896 1.70908 136 2.08985 136C2.4121 136 2.73498 135.925 3.03195 135.775L29.6691 122.259C30.9358 121.68 31.9086 120.646 32.4121 119.34C32.8315 118.253 32.8842 117.084 32.5736 115.982L32.8227 115.871C37.2507 113.908 42.2761 114.022 46.6111 116.185L56.8397 121.289C62.2898 124.009 68.6086 124.153 74.1758 121.684L102.119 109.292C106.25 107.459 108.126 102.593 106.303 98.444Z" fill="white"/>
<path d="M77.8337 10.1088L79.9106 1.11249" stroke="white" stroke-width="3"/>
<path d="M90.594 14.8508L94.697 6.57877" stroke="white" stroke-width="3"/>
<path d="M102.316 21.8656L108.327 14.8571" stroke="white" stroke-width="3"/>
<path d="M111.286 31.9129L118.771 26.5049" stroke="white" stroke-width="3"/>
<path d="M116.953 42.933L125.457 39.3379" stroke="white" stroke-width="3"/>
</g>
<defs>
<clipPath id="clip0_6_436">
<rect width="126" height="136" fill="white"/>
</clipPath>
</defs>
</svg>
