<svg width="241" height="232" viewBox="0 0 241 232" fill="none" xmlns="http://www.w3.org/2000/svg">
<path opacity="0.2" fill-rule="evenodd" clip-rule="evenodd" d="M166.633 230H181.497V0H166.633V230Z" fill="#FEFEFE"/>
<path opacity="0.2" fill-rule="evenodd" clip-rule="evenodd" d="M110.306 230H125.17V195.578H110.306V230Z" fill="#FEFEFE"/>
<path d="M234.347 93.9811V106.378" stroke="#FEFEFE" stroke-width="2"/>
<path d="M240.756 100.18H227.939" stroke="#FEFEFE" stroke-width="2"/>
<path d="M12.3762 41.0662V66.2942" stroke="#FEFEFE" stroke-width="5"/>
<path d="M24.6087 53.6804H0.145264" stroke="#FEFEFE" stroke-width="5"/>
<path d="M46.5974 83.2447V104.4" stroke="#FEFEFE" stroke-width="2"/>
<path d="M57.0728 93.8228H36.1213" stroke="#FEFEFE" stroke-width="2"/>
<path fill-rule="evenodd" clip-rule="evenodd" d="M184.25 48.7755L189.259 50.8499C190.807 47.1145 191.667 43.0206 191.667 38.7237H186.253C186.253 35.1647 185.534 31.7717 184.245 28.6735L189.259 26.5976C187.711 22.8652 185.459 19.5033 182.686 16.651L182.694 16.6422C182.59 16.537 182.491 16.4258 182.387 16.3206L178.541 20.1656C176.124 17.746 173.236 15.7976 170.032 14.4641L172.11 9.44856C168.374 7.89871 164.278 7.04082 159.983 7.04082V12.4534C156.424 12.4534 153.03 13.1691 149.931 14.4567L147.857 9.44856C145.921 10.2516 144.082 11.2399 142.362 12.3912C140.64 13.5439 139.038 14.8612 137.58 16.3206L141.418 20.1582C138.997 22.5763 137.051 25.4656 135.716 28.672L130.707 26.5976C129.159 30.3329 128.299 34.4269 128.299 38.7237H133.715C133.715 42.2842 134.435 45.6743 135.722 48.7726L130.707 50.8499C132.315 54.723 134.662 58.2094 137.58 61.1269L141.425 57.2834C141.661 57.5175 141.895 57.7531 142.139 57.9798C144.403 60.0793 147.041 61.7818 149.933 62.9864L147.857 68.0004C151.592 69.5488 155.688 70.4082 159.983 70.4082V64.9941C163.542 64.9926 166.935 64.2784 170.035 62.9908L172.11 68.0004C175.982 66.3943 179.468 64.0458 182.387 61.1269L178.55 57.2908C180.968 54.8712 182.918 51.9819 184.25 48.7755Z" stroke="#F28B03" stroke-width="5"/>
<path fill-rule="evenodd" clip-rule="evenodd" d="M163.71 35.2708C162.781 34.2687 161.454 33.6395 159.982 33.6395C157.178 33.6395 154.898 35.9199 154.898 38.7237C154.898 40.1955 155.526 41.5229 156.528 42.4529C157.436 43.2939 158.65 43.8095 159.982 43.8095C162.786 43.8095 165.068 41.5291 165.068 38.7237C165.068 37.3917 164.552 36.1778 163.71 35.2708Z" stroke="#F28B03" stroke-width="5"/>
<path fill-rule="evenodd" clip-rule="evenodd" d="M86.1095 197.437L93.469 200.485C95.7439 194.996 97.0069 188.983 97.0069 182.671H89.053C89.053 177.441 87.9981 172.457 86.1036 167.906L93.469 164.856C91.1942 159.371 87.8881 154.432 83.8139 150.242L83.8258 150.23C83.6727 150.074 83.5286 149.911 83.3741 149.756L77.7233 155.404C74.1706 151.85 69.9315 148.988 65.2213 147.028L68.2732 139.66C62.786 137.384 56.7712 136.122 50.4592 136.122V144.076H50.4578C45.229 144.076 40.2425 145.127 35.6913 147.02L32.6437 139.66C29.7998 140.84 27.0955 142.292 24.5681 143.985C22.0406 145.678 19.6885 147.612 17.5429 149.756L23.1803 155.394C19.6276 158.948 16.7658 163.193 14.8075 167.903L7.44946 164.856C5.17163 170.343 3.91162 176.357 3.91162 182.671H11.864C11.864 187.899 12.9219 192.883 14.8179 197.433L7.44946 200.485C9.80752 206.174 13.2577 211.297 17.5429 215.584L23.1937 209.936C23.5399 210.282 23.8846 210.627 24.2427 210.96C27.571 214.044 31.4432 216.545 35.6927 218.315L32.6437 225.68C38.1325 227.956 44.1473 229.218 50.4592 229.218V221.264C55.6865 221.262 60.6745 220.213 65.2257 218.321L68.2732 225.68C73.9626 223.32 79.0859 219.872 83.3741 215.584L77.7352 209.946C81.2909 206.392 84.1527 202.147 86.1095 197.437Z" stroke="#F28B03" stroke-width="5"/>
<path fill-rule="evenodd" clip-rule="evenodd" d="M55.2293 178.28C53.9414 176.892 52.1052 176.02 50.0674 176.02C46.1862 176.02 43.0273 179.18 43.0273 183.061C43.0273 185.099 43.8976 186.935 45.2856 188.223C46.543 189.387 48.2226 190.102 50.0674 190.102C53.9501 190.102 57.109 186.943 57.109 183.061C57.109 181.217 56.3954 179.536 55.2293 178.28Z" stroke="#F28B03" stroke-width="5"/>
<path d="M226.871 132.993V154.116" stroke="#F28B03" stroke-width="3"/>
<path d="M237.041 143.946H215.918" stroke="#F28B03" stroke-width="3"/>
<path opacity="0.2" fill-rule="evenodd" clip-rule="evenodd" d="M139.252 230H154.116V118.129H139.252V230Z" fill="#FEFEFE"/>
<path fill-rule="evenodd" clip-rule="evenodd" d="M189.32 118.52C189.32 165.83 151.143 204.184 104.047 204.184C56.9514 204.184 18.7756 165.83 18.7756 118.52C18.7756 71.2107 56.9514 32.8571 104.047 32.8571C151.143 32.8571 189.32 71.2107 189.32 118.52Z" fill="#1F1E29"/>
<path fill-rule="evenodd" clip-rule="evenodd" d="M189.32 118.52C189.32 165.83 151.143 204.184 104.047 204.184C56.9514 204.184 18.7756 165.83 18.7756 118.52C18.7756 71.2107 56.9514 32.8571 104.047 32.8571C151.143 32.8571 189.32 71.2107 189.32 118.52Z" stroke="#FEFEFE" stroke-width="7"/>
<path d="M60.238 122.39L90.3713 149.422L147.075 87.619" stroke="#F28B03" stroke-width="7" stroke-linecap="round" stroke-linejoin="round"/>
</svg>
