<svg width="168" height="170" viewBox="0 0 168 170" fill="none" xmlns="http://www.w3.org/2000/svg">
<path fill-rule="evenodd" clip-rule="evenodd" d="M73.5294 113.061C73.5294 123.921 64.7246 132.726 53.8644 132.726C43.0033 132.726 34.1985 123.921 34.1985 113.061C34.1985 102.2 43.0033 93.3956 53.8644 93.3956C64.7246 93.3956 73.5294 102.2 73.5294 113.061Z" fill="#1F1E29"/>
<g opacity="0.15">
<path opacity="0.15" d="M5.933 109.025C3.74876 101.674 2.57593 93.8883 2.57593 85.8279C2.57593 46.9838 29.8128 14.5018 66.2306 6.43878" stroke="white" stroke-width="4"/>
<path opacity="0.15" d="M131.124 152.02C117.81 161.539 101.503 167.14 83.8875 167.14C56.1938 167.14 31.7327 153.294 17.05 132.148" stroke="white" stroke-width="4"/>
<path opacity="0.15" d="M163.457 102.655C160.491 116.748 153.877 129.497 144.646 139.867" stroke="white" stroke-width="4"/>
<path opacity="0.15" d="M117.761 11.8856C145.757 24.7309 165.2 53.0092 165.2 85.8278" stroke="white" stroke-width="4"/>
<path opacity="0.15" d="M83.8879 4.51587C89.8431 4.51587 95.648 5.15637 101.238 6.37127" stroke="white" stroke-width="4"/>
<path opacity="0.15" d="M41.7835 140.956C25.2128 128.281 14.5234 108.302 14.5234 85.8279C14.5234 75.7825 16.6587 66.2359 20.5009 57.6174" stroke="white" stroke-width="4"/>
<path opacity="0.15" d="M135.883 131.74C123.174 146.123 104.591 155.192 83.8875 155.192C74.668 155.192 65.8683 153.393 57.8208 150.127" stroke="white" stroke-width="4"/>
<path opacity="0.15" d="M148.19 59.768C151.454 67.8138 153.253 76.6109 153.253 85.8278C153.253 99.402 149.353 112.066 142.613 122.76" stroke="white" stroke-width="4"/>
<path opacity="0.15" d="M133.55 37.402C136.509 40.4354 139.191 43.7393 141.558 47.2723" stroke="white" stroke-width="4"/>
<path opacity="0.15" d="M28.3706 44.2376C41.0236 27.3733 61.1815 16.4641 83.8876 16.4641C98.2535 16.4641 111.599 20.8309 122.67 28.31" stroke="white" stroke-width="4"/>
<path opacity="0.15" d="M51.5693 37.8963C60.7948 31.6638 71.917 28.0243 83.8882 28.0243" stroke="white" stroke-width="4"/>
<path opacity="0.15" d="M27.6731 99.3431C26.6351 95.0072 26.0847 90.4825 26.0847 85.8281C26.0847 71.4485 31.335 58.2958 40.023 48.1816" stroke="white" stroke-width="4"/>
<path opacity="0.15" d="M102.926 140.423C96.9648 142.502 90.558 143.631 83.8877 143.631C62.0607 143.631 43.0593 131.533 33.2234 113.677" stroke="white" stroke-width="4"/>
<path opacity="0.15" d="M134.16 114.378C129.851 121.949 123.881 128.451 116.747 133.39" stroke="white" stroke-width="4"/>
<path opacity="0.15" d="M103.097 31.2926C125.579 39.2113 141.692 60.6382 141.692 85.8283C141.692 90.6655 141.097 95.3646 139.978 99.855" stroke="white" stroke-width="4"/>
</g>
<path d="M92.0808 27.0633V19.136" stroke="#F28B03" stroke-width="4"/>
<path d="M103.371 28.3877L105.205 20.675" stroke="#F28B03" stroke-width="4"/>
<path d="M114.701 32.6236L118.376 25.5995" stroke="#F28B03" stroke-width="4"/>
<path d="M124.186 39.1146L129.403 33.1449" stroke="#F28B03" stroke-width="4"/>
<path d="M131.597 47.2359L138.018 42.5858" stroke="#F28B03" stroke-width="4"/>
<path d="M43.415 3.96875V0.858093" stroke="#F28B03" stroke-width="4"/>
<mask id="mask0_6_550" style="mask-type:alpha" maskUnits="userSpaceOnUse" x="42" y="0" width="2" height="4">
<path d="M42.9858 0.858582H43.8444V3.96872H42.9858V0.858582Z" fill="white"/>
</mask>
<g mask="url(#mask0_6_550)">
</g>
<path d="M34.5401 6.15041L33.0977 3.39435" stroke="#F28B03" stroke-width="4"/>
<path d="M27.9102 11.8838L25.3911 10.0593" stroke="#F28B03" stroke-width="4"/>
<path fill-rule="evenodd" clip-rule="evenodd" d="M125.996 76.1842V105.907H108.373C104.683 105.881 101.699 102.893 101.677 99.2029V82.8434C101.702 79.1618 104.692 76.1885 108.373 76.1842H125.996ZM119.444 123.157H73.8298C75.4122 120.248 76.3069 116.685 76.3069 113.019C76.3129 100.789 66.4039 90.8678 54.1725 90.86C50.745 90.8549 47.3648 91.6645 44.3108 93.2203V65.4596C44.3108 61.7918 47.206 58.7249 50.873 58.7249H119.442C123.11 58.7249 125.996 61.7909 125.996 65.4596V72.8581H108.373C102.855 72.8649 98.3785 77.3253 98.3519 82.8434V99.2029C98.3751 104.729 102.847 109.205 108.373 109.232H125.996V116.589C126.012 118.334 125.328 120.012 124.096 121.247C122.865 122.481 121.187 123.17 119.444 123.157ZM54.1287 131.914C43.7167 131.914 35.2742 123.473 35.2742 113.061C35.2742 102.648 43.7167 94.2068 54.1287 94.2068C64.5417 94.2068 72.9824 102.648 72.9824 113.061C72.9713 123.468 64.5356 131.903 54.1287 131.914ZM88.6224 41.4338L92.0276 46.2797L72.803 55.3996H68.6045L88.6224 41.4338ZM112.257 55.3996H80.5483L106.411 43.1038L112.257 55.3996ZM119.444 55.3996H115.938L108.7 40.2146C108.51 39.8188 108.168 39.5158 107.752 39.3715C107.337 39.2281 106.881 39.2556 106.485 39.4471L95.073 44.8828L90.3945 38.2013C90.1413 37.8406 89.7557 37.5951 89.3213 37.5195C88.892 37.4285 88.4447 37.5127 88.0781 37.7548L62.8022 55.3996H50.873C45.3712 55.3996 40.9855 59.9561 40.9855 65.4596V95.2706C35.3738 99.3188 31.9944 105.787 31.9944 113.061C32.0004 125.291 41.9196 135.203 54.1502 135.199C61.0549 135.242 67.5699 132.009 71.71 126.483H119.444C122.069 126.495 124.591 125.455 126.446 123.597C128.302 121.738 129.337 119.215 129.321 116.589V65.4596C129.321 59.9561 124.944 55.3996 119.444 55.3996Z" fill="white"/>
<path fill-rule="evenodd" clip-rule="evenodd" d="M111.45 88.8421C112.655 88.8421 113.632 89.8183 113.632 91.0246C113.632 92.2284 112.655 93.2063 111.45 93.2063C110.244 93.2063 109.267 92.2284 109.267 91.0246C109.268 89.8192 110.245 88.8438 111.45 88.8421ZM105.941 91.0246C105.941 94.0666 108.408 96.5324 111.45 96.5324C114.492 96.5324 116.957 94.0666 116.957 91.0246C116.957 87.9827 114.492 85.5159 111.45 85.5159C108.409 85.5194 105.944 87.9835 105.941 91.0246Z" fill="#F28B03"/>
<path d="M43.1881 121.735C41.5166 119.288 42.784 114.822 43.9538 112.61C42.1161 109.088 42.2947 105.059 42.6138 103.485C43.4816 100.524 47.5273 104.506 49.4417 106.867C52.811 105.387 56.8014 106.25 58.3754 106.867C60.6331 104.091 65.331 99.9753 65.331 104.187C65.331 107.556 64.2249 111.206 63.6718 112.61C66.3775 118.379 64.9724 121.384 63.6718 122.405C54.98 129.229 44.256 123.299 43.1881 121.735Z" fill="#F9930D"/>
<path d="M44.2408 116.179C42.0846 116.738 42.7221 120.069 43.4708 121.657C44.0558 123.385 48.3565 124.481 50.2733 124.819C57.9102 126.344 61.1505 124.268 62.8517 122.913C65.547 120.767 65.2916 118.017 64.456 116.814C63.3134 115.169 60.6055 117.132 58.8086 117.64C57.3711 118.046 55.3859 117.47 54.5731 117.132C54.0083 116.979 53.4393 117.068 53.2254 117.132C49.1823 118.085 48.3481 117.767 47.1287 117.132C46.1533 116.623 44.4334 116.115 44.2408 116.179Z" fill="#FEEBC1"/>
<path fill-rule="evenodd" clip-rule="evenodd" d="M60.3097 117.16C59.7532 117.386 59.217 117.602 58.7648 117.727C58.0347 117.928 57.1513 117.792 56.3974 117.732C55.686 117.524 54.9865 117.262 54.5198 117.176C53.9752 117.023 53.4234 117.105 53.219 117.165L53.2172 117.165L53.2154 117.165C51.1999 117.626 49.9787 117.776 49.1083 117.727C48.2334 117.679 47.7154 117.429 47.109 117.103C46.6311 116.846 45.9674 116.586 45.3981 116.397C45.1137 116.303 44.8541 116.228 44.6543 116.18C44.5543 116.155 44.4704 116.138 44.4064 116.129C44.3743 116.125 44.3483 116.122 44.3284 116.122C44.3184 116.122 44.3107 116.122 44.3049 116.122C44.302 116.123 44.2999 116.123 44.2984 116.123C44.297 116.124 44.2964 116.124 44.2964 116.124L44.2944 116.124L44.2923 116.125C43.7284 116.171 43.4435 116.453 43.1954 116.956C42.968 117.359 42.8658 117.867 42.8526 118.414C42.8261 119.508 43.1563 120.737 43.518 121.531L43.5195 121.535L43.5206 121.538C43.6557 121.954 44.015 122.342 44.5198 122.696C45.0234 123.049 45.6641 123.364 46.3492 123.637C47.7192 124.182 49.2572 124.556 50.206 124.734L50.2074 124.734C53.9897 125.534 56.6849 125.42 58.6444 124.941C60.6031 124.462 61.8312 123.618 62.6791 122.949C64.0183 121.892 64.593 120.795 64.7516 119.76C64.9105 118.722 64.9378 117.673 64.4983 116.904C64.3092 116.647 64.1137 116.573 63.9698 116.476C63.8253 116.378 63.6499 116.322 63.4479 116.301C63.042 116.258 62.5388 116.358 61.9926 116.528C61.4629 116.692 60.9002 116.921 60.3564 117.141L60.3097 117.16Z" fill="#FEEBC1" stroke="#FEEBC1"/>
<path fill-rule="evenodd" clip-rule="evenodd" d="M64.6858 102.076C65.4109 102.325 65.7138 103.1 65.7138 104.187C65.7138 107.505 64.6663 111.069 64.0876 112.596C66.7398 118.354 65.3948 121.54 63.9083 122.707C59.4479 126.208 54.4677 126.431 50.4918 125.59C48.5044 125.17 46.7597 124.483 45.4408 123.799C44.7813 123.457 44.2242 123.114 43.7939 122.803C43.3737 122.499 43.0443 122.204 42.872 121.951C41.9541 120.607 41.8679 118.759 42.1268 117.028C42.3745 115.372 42.9493 113.746 43.5234 112.609C41.73 109.03 41.9135 105.012 42.2386 103.409C42.2407 103.398 42.2433 103.388 42.2464 103.377C42.3687 102.96 42.5585 102.625 42.8281 102.393C43.103 102.157 43.4303 102.053 43.7731 102.049C44.4282 102.042 45.1585 102.395 45.85 102.863C47.1697 103.757 48.5887 105.24 49.5565 106.404C51.2392 105.729 53.0368 105.594 54.6073 105.699C56.0981 105.798 57.4064 106.115 58.2534 106.413C59.3955 105.049 61.0681 103.415 62.507 102.576C62.8884 102.354 63.2674 102.179 63.6265 102.082C63.9833 101.987 64.3502 101.961 64.6858 102.076ZM62.8927 103.237C61.4936 104.053 59.7888 105.736 58.6725 107.109C58.5674 107.238 58.3908 107.284 58.2357 107.224C57.4855 106.93 56.133 106.568 54.5563 106.463C52.9798 106.357 51.2064 106.51 49.5957 107.218C49.4378 107.287 49.253 107.242 49.1443 107.108C48.1958 105.938 46.7337 104.387 45.4206 103.497C44.753 103.045 44.1895 102.81 43.782 102.815C43.5936 102.817 43.4475 102.87 43.3276 102.974C43.2043 103.08 43.0799 103.264 42.9858 103.577C42.6802 105.107 42.5146 109.024 44.2933 112.433C44.3516 112.545 44.3512 112.678 44.2923 112.789C43.7262 113.86 43.1315 115.488 42.8841 117.141C42.6348 118.808 42.7507 120.416 43.5043 121.519C43.5989 121.658 43.8382 121.89 44.2429 122.183C44.6374 122.468 45.1612 122.792 45.7931 123.119C47.0568 123.774 48.7366 124.436 50.6502 124.841C54.4762 125.65 59.204 125.426 63.4354 122.104C64.5372 121.239 65.9921 118.459 63.3252 112.773C63.2805 112.677 63.277 112.568 63.3156 112.47C63.8589 111.091 64.9481 107.491 64.9481 104.187C64.9481 103.168 64.6638 102.878 64.4375 102.801C64.2974 102.753 64.0976 102.749 63.8245 102.822C63.5537 102.895 63.2396 103.035 62.8927 103.237Z" fill="url(#paint0_linear_6_550)"/>
<path fill-rule="evenodd" clip-rule="evenodd" d="M50.1961 119.226C50.3663 119.1 50.606 119.137 50.7314 119.307C51.0342 119.718 51.3993 120.154 51.8411 120.321C52.0465 120.399 52.2731 120.419 52.5362 120.337C52.8067 120.253 53.1387 120.054 53.5305 119.65C53.6778 119.498 53.9202 119.495 54.0719 119.642C54.2236 119.789 54.2272 120.032 54.08 120.183C53.6294 120.648 53.192 120.935 52.7635 121.069C52.3275 121.204 51.9256 121.172 51.5706 121.038C50.8913 120.781 50.4077 120.158 50.1149 119.761C49.9895 119.591 50.0258 119.351 50.1961 119.226Z" fill="black"/>
<path fill-rule="evenodd" clip-rule="evenodd" d="M57.5398 119.224C57.3686 119.1 57.1292 119.138 57.005 119.309C56.7008 119.728 56.3617 120.158 55.9482 120.322C55.7598 120.397 55.5511 120.417 55.3028 120.337C55.0456 120.254 54.7237 120.057 54.3372 119.652C54.191 119.499 53.9487 119.494 53.7958 119.64C53.643 119.786 53.6376 120.029 53.7837 120.181C54.2256 120.644 54.6516 120.932 55.0684 121.066C55.4942 121.203 55.8856 121.171 56.2305 121.034C56.8835 120.775 57.3431 120.147 57.6247 119.759C57.7489 119.588 57.7109 119.348 57.5398 119.224Z" fill="black"/>
<path fill-rule="evenodd" clip-rule="evenodd" d="M54.3156 118.704V120.172H53.5498V118.704H54.3156Z" fill="black"/>
<path d="M55.4005 118.066C55.4005 118.595 54.7433 119.023 53.9328 119.023C53.1222 119.023 52.4651 118.595 52.4651 118.066C52.4651 117.537 53.1222 117.109 53.9328 117.109C54.7433 117.109 55.4005 117.537 55.4005 118.066Z" fill="black"/>
<path d="M44.7327 108.892C44.1439 106.671 43.692 103.131 46.5944 106.735L44.7327 108.892Z" fill="#FEEBC1"/>
<path fill-rule="evenodd" clip-rule="evenodd" d="M45.0777 107.516L45.7574 106.728C45.5545 106.495 45.3775 106.312 45.2244 106.171C45.1131 106.068 45.0212 105.994 44.9475 105.941C44.9215 106.188 44.9363 106.56 44.9995 107.025C45.0212 107.185 45.0476 107.35 45.0777 107.516ZM44.9973 105.712C44.9973 105.712 44.9968 105.713 44.9956 105.715C44.9967 105.713 44.9973 105.712 44.9973 105.712ZM46.0898 105.233C46.385 105.505 46.7171 105.87 47.0915 106.335C47.2848 106.575 47.2789 106.919 47.0776 107.152L45.2159 109.309C45.0612 109.488 44.8201 109.567 44.5895 109.514C44.3589 109.46 44.1766 109.284 44.116 109.055C43.964 108.482 43.8191 107.818 43.7349 107.197C43.6539 106.601 43.6157 105.958 43.7351 105.476C43.794 105.238 43.9198 104.919 44.2188 104.718C44.5551 104.492 44.9311 104.528 45.23 104.645C45.5154 104.757 45.8017 104.967 46.0898 105.233Z" fill="#FEEBC1"/>
<path d="M63.1328 108.892C63.7215 106.671 64.1734 103.131 61.2711 106.735L63.1328 108.892Z" fill="#FEEBC1"/>
<path fill-rule="evenodd" clip-rule="evenodd" d="M62.788 107.516L62.1084 106.728C62.3112 106.495 62.4882 106.312 62.6413 106.171C62.7526 106.068 62.8445 105.994 62.9182 105.941C62.9442 106.188 62.9294 106.56 62.8662 107.025C62.8445 107.185 62.8181 107.35 62.788 107.516ZM62.8684 105.712C62.8684 105.712 62.8689 105.713 62.8701 105.715C62.869 105.713 62.8684 105.712 62.8684 105.712ZM61.776 105.233C61.4807 105.505 61.1486 105.87 60.7742 106.335C60.5809 106.575 60.5868 106.919 60.7882 107.152L62.6499 109.309C62.8045 109.488 63.0456 109.567 63.2762 109.514C63.5068 109.46 63.6891 109.284 63.7497 109.055C63.9017 108.482 64.0466 107.818 64.1309 107.197C64.2118 106.601 64.2501 105.958 64.1307 105.476C64.0717 105.238 63.9459 104.919 63.6469 104.718C63.3107 104.492 62.9346 104.528 62.6358 104.645C62.3503 104.757 62.064 104.967 61.776 105.233Z" fill="#FEEBC1"/>
<path fill-rule="evenodd" clip-rule="evenodd" d="M49.147 116.677C50.4158 116.677 51.4443 115.648 51.4443 114.38C51.4443 113.111 50.4158 112.082 49.147 112.082C47.8783 112.082 46.8498 113.111 46.8498 114.38C46.8498 115.648 47.8783 116.677 49.147 116.677ZM49.147 117.315C50.7682 117.315 52.0824 116.001 52.0824 114.38C52.0824 112.758 50.7682 111.444 49.147 111.444C47.5259 111.444 46.2117 112.758 46.2117 114.38C46.2117 116.001 47.5259 117.315 49.147 117.315Z" fill="black"/>
<path fill-rule="evenodd" clip-rule="evenodd" d="M58.4637 116.677C59.7324 116.677 60.7609 115.648 60.7609 114.38C60.7609 113.111 59.7324 112.082 58.4637 112.082C57.195 112.082 56.1664 113.111 56.1664 114.38C56.1664 115.648 57.195 116.677 58.4637 116.677ZM58.4637 117.315C60.0848 117.315 61.399 116.001 61.399 114.38C61.399 112.758 60.0848 111.444 58.4637 111.444C56.8425 111.444 55.5283 112.758 55.5283 114.38C55.5283 116.001 56.8425 117.315 58.4637 117.315Z" fill="black"/>
<path d="M51.1225 111.113C51.1307 111.705 50.2096 112.198 49.0649 112.214C47.9203 112.23 46.9857 111.763 46.9774 111.171C46.9691 110.579 47.8903 110.086 49.0349 110.07C50.1795 110.054 51.1142 110.52 51.1225 111.113Z" fill="#FEEBC1"/>
<path d="M56.7409 111.214C56.7435 110.622 57.6736 110.146 58.8183 110.151C59.963 110.156 60.8889 110.64 60.8863 111.232C60.8837 111.824 59.9536 112.3 58.8089 112.295C57.6642 112.29 56.7383 111.806 56.7409 111.214Z" fill="#FEEBC1"/>
<path fill-rule="evenodd" clip-rule="evenodd" d="M55.5233 114.759C54.2076 113.732 52.6877 114.32 52.079 114.765C51.9367 114.869 51.7371 114.838 51.6332 114.695C51.5293 114.553 51.5604 114.353 51.7027 114.249C52.4128 113.731 54.2707 112.971 55.9159 114.256C56.0548 114.364 56.0795 114.565 55.9711 114.703C55.8627 114.842 55.6622 114.867 55.5233 114.759Z" fill="black"/>
<path fill-rule="evenodd" clip-rule="evenodd" d="M48.8783 114.658C48.4695 114.727 48.2264 114.924 48.1574 115.035C47.9716 115.335 47.5782 115.427 47.2787 115.241C46.9793 115.055 46.8872 114.662 47.0731 114.362C47.387 113.857 48.0054 113.511 48.6654 113.4C49.3535 113.283 50.1607 113.403 50.911 113.917C51.2018 114.116 51.2763 114.513 51.0773 114.804C50.8783 115.095 50.4811 115.169 50.1903 114.97C49.7281 114.654 49.2591 114.593 48.8783 114.658Z" fill="#010101"/>
<path fill-rule="evenodd" clip-rule="evenodd" d="M57.4414 114.995C58.3709 114.302 59.2622 114.765 59.4404 115.078C59.6147 115.384 60.0043 115.491 60.3107 115.317C60.617 115.143 60.724 114.753 60.5497 114.447C59.9622 113.414 58.1733 112.857 56.678 113.973C56.3956 114.183 56.3375 114.583 56.5483 114.866C56.7591 115.148 57.1589 115.206 57.4414 114.995Z" fill="#010101"/>
<defs>
<linearGradient id="paint0_linear_6_550" x1="56.1025" y1="112.132" x2="53.869" y2="148.505" gradientUnits="userSpaceOnUse">
<stop/>
<stop offset="1" stop-color="white"/>
</linearGradient>
</defs>
</svg>
